<svg aria-hidden="true" style="width:0;height:0;position:absolute;overflow:hidden" xmlns="http://www.w3.org/2000/svg"><defs><symbol id="chat-icon" viewBox="0 0 32 32"><path fill="#674d40" style="fill:var(--color1,#674d40)" d="M24.621 14.939c0-6.705-6.161-11.099-12.311-11.099C6.135 3.84 0 8.256 0 14.939c0 2.529.965 5.002 2.719 6.963a.331.331 0 0 1 .066.3l.001-.002c-.55 2.314-1.855 4.403-2.39 5.197a.882.882 0 0 0-.069.854l-.002-.006c.12.271.357.438.621.438h.018c2.619-.074 5.654-.922 7.529-3.039a.244.244 0 0 1 .254-.077h-.002c1.152.312 2.353.472 3.566.472 6.173 0 12.311-4.415 12.311-11.1zM8.96 24.52a1.097 1.097 0 0 0-1.124.355l-.001.002c-1.876 2.116-4.94 2.598-6.39 2.705.663-1.05 1.74-2.976 2.245-5.1a1.514 1.514 0 0 0-.319-1.353l.002.002C1.779 19.349.937 17.208.937 14.938c0-5.527 5.102-10.022 11.373-10.022 6.272 0 11.373 4.495 11.373 10.022S18.582 24.962 12.31 24.962h-.016c-1.186 0-2.334-.162-3.423-.464l.09.021z"/><path fill="#674d40" style="fill:var(--color1,#674d40)" d="M27.635 23.875C30.368 22.29 32 19.59 32 16.651c0-4.154-3.273-7.703-7.782-8.439-.256-.042-.494.163-.53.456-.037.294.141.567.397.609 4.045.659 6.979 3.761 6.979 7.374 0 2.525-1.44 4.867-3.85 6.264-.47.273-.721.873-.611 1.462.228 1.233.714 2.373 1.103 3.146-2.767-.529-3.817-2.052-4.148-2.711-.205-.408-.589-.66-1.001-.66h-.038c-.52 0-1.041-.041-1.546-.123-.256-.041-.494.164-.53.458s.142.566.399.607c.549.09 1.114.134 1.677.134h.038a.21.21 0 0 1 .188.122c1.27 2.524 4.188 3.168 5.385 3.328.264.035.515-.102.655-.362a.86.86 0 0 0-.006-.839l.002.004c-.361-.644-1.004-1.933-1.262-3.328a.267.267 0 0 1 .115-.278l.001-.001zM5.016 13.015c-.896 0-1.626.837-1.626 1.865s.73 1.864 1.626 1.864c.896 0 1.626-.836 1.626-1.864s-.73-1.865-1.626-1.865zm0 2.653c-.379 0-.687-.355-.687-.788 0-.435.307-.788.687-.788.379 0 .687.353.687.788s-.308.788-.687.788zm4.635-2.653c-.896 0-1.626.837-1.626 1.865s.73 1.864 1.626 1.864c.896 0 1.624-.836 1.624-1.864s-.73-1.865-1.626-1.865zm0 2.653c-.379 0-.687-.355-.687-.788 0-.435.307-.788.687-.788.378 0 .686.353.686.788s-.307.788-.686.788zm4.634-2.653c-.896 0-1.624.837-1.624 1.865s.73 1.864 1.626 1.864c.896 0 1.624-.836 1.624-1.864s-.73-1.865-1.626-1.865zm0 2.653c-.379 0-.686-.355-.686-.788 0-.435.307-.788.686-.788s.687.353.687.788c0 .435-.307.788-.687.788zm4.635-2.653c-.896 0-1.626.837-1.626 1.865s.73 1.864 1.626 1.864c.896 0 1.626-.836 1.626-1.864s-.73-1.865-1.626-1.865zm0 2.653c-.379 0-.687-.355-.687-.788 0-.435.308-.788.687-.788s.687.353.687.788c0 .435-.308.788-.687.788z"/></symbol><symbol id="chef-hat-icon" viewBox="0 0 31 32"><path fill="#674d40" style="fill:var(--color1,#674d40)" d="M21.768 8.572a.404.404 0 0 1-.304-.144v-.001a.529.529 0 0 1-.125-.343v-.005c-.033-1.889-.712-3.689-1.888-5.011s-2.757-2.063-4.404-2.063-3.228.741-4.404 2.063C9.465 4.39 8.788 6.19 8.755 8.079a.532.532 0 0 1-.125.348.406.406 0 0 1-.304.145.405.405 0 0 1-.303-.144l-.001-.001a.528.528 0 0 1-.127-.345v-.004c.029-2.154.796-4.209 2.134-5.722C11.369.847 13.17-.002 15.047-.002c1.879 0 3.681.847 5.02 2.359 1.338 1.51 2.104 3.566 2.132 5.72a.532.532 0 0 1-.125.348.404.404 0 0 1-.303.145z"/><path fill="#674d40" style="fill:var(--color1,#674d40)" d="M23.022 19.732a.4.4 0 0 1-.304-.143v-.001a.525.525 0 0 1-.128-.346v-.001c0-.132.044-.256.124-.351a.404.404 0 0 1 .303-.146c1.637-.012 3.205-.759 4.366-2.083 1.162-1.322 1.824-3.116 1.846-4.995-.017-1.896-.687-3.707-1.866-5.037s-2.769-2.068-4.422-2.054c-.635 0-1.266.106-1.873.32a.378.378 0 0 1-.326-.042l.002.001a.486.486 0 0 1-.207-.286l-.001-.003a.545.545 0 0 1 .031-.375l-.001.003a.457.457 0 0 1 .25-.243 6.264 6.264 0 0 1 2.118-.361h.008c1.882-.014 3.69.828 5.03 2.342s2.102 3.578 2.118 5.734c-.023 2.138-.774 4.179-2.095 5.687-1.32 1.508-3.104 2.362-4.966 2.377h-.005zm-15.956 0h-.004c-1.864-.015-3.647-.869-4.966-2.377C.774 15.847.021 13.806.001 11.668c.017-2.157.778-4.22 2.118-5.734s3.149-2.356 5.03-2.342a6.383 6.383 0 0 1 2.125.362.42.42 0 0 1 .15.09.48.48 0 0 1 .106.146l.001.003a.545.545 0 0 1-.048.552l.001-.002a.437.437 0 0 1-.13.12l-.002.001a.39.39 0 0 1-.333.031l.003.001a5.518 5.518 0 0 0-1.867-.319h-.007c-1.651-.013-3.242.724-4.421 2.054S.876 9.772.861 11.668c.02 1.879.684 3.672 1.844 4.995 1.162 1.324 2.73 2.071 4.367 2.083.06.001.116.015.166.039l-.002-.001a.45.45 0 0 1 .14.108.555.555 0 0 1-.004.698l.001-.001a.43.43 0 0 1-.138.105l-.003.001a.38.38 0 0 1-.164.037z"/><path fill="#674d40" style="fill:var(--color1,#674d40)" d="M23.022 32H7.066a.404.404 0 0 1-.304-.144v-.001a.529.529 0 0 1-.125-.343V19.238c0-.131.045-.256.125-.349a.403.403 0 0 1 .304-.143c.114 0 .223.051.303.143a.53.53 0 0 1 .125.349v11.773h15.098V19.238c0-.131.045-.256.125-.349a.403.403 0 0 1 .304-.143c.114 0 .223.051.303.143a.533.533 0 0 1 .127.349v12.268a.528.528 0 0 1-.127.348.404.404 0 0 1-.303.145z"/><path fill="#674d40" style="fill:var(--color1,#674d40)" d="M26.013 27.222H10.058a.404.404 0 0 1-.304-.144l-.001-.001a.529.529 0 0 1-.125-.343v-.006c0-.131.045-.256.125-.348a.406.406 0 0 1 .304-.145h15.955a.4.4 0 0 1 .305.145.528.528 0 0 1 .125.348.534.534 0 0 1-.125.349.406.406 0 0 1-.304.145z"/></symbol><symbol id="clock-icon" viewBox="0 0 32 32"><path fill="#674d40" style="fill:var(--color1,#674d40)" d="M16 0C7.177 0 0 7.177 0 16c0 8.822 7.177 16 16 16 8.822 0 16-7.178 16-16 0-8.823-7.178-16-16-16zm0 30.934c-8.234 0-14.934-6.7-14.934-14.934S7.766 1.066 16 1.066 30.934 7.766 30.934 16 24.234 30.934 16 30.934z"/><path fill="#674d40" style="fill:var(--color1,#674d40)" d="M16.534 13.878V8.469a.534.534 0 1 0-1.068 0v5.409a2.14 2.14 0 0 0-1.52 1.51l-.003.015h-3.809l-.026-.001a.534.534 0 1 0 0 1.068l.027-.001h-.001 3.809a2.13 2.13 0 0 0 2.057 1.6 2.134 2.134 0 0 0 2.134-2.132c0-.992-.684-1.819-1.6-2.058zM16 17.002a1.067 1.067 0 0 1 .002-2.136h.001a1.067 1.067 0 0 1-.002 2.136H16zm0-11.734a.533.533 0 0 0 .534-.532v-.534a.534.534 0 1 0-1.068 0v.534c0 .294.239.532.534.532zm0 21.334a.534.534 0 0 0-.534.534v.532a.534.534 0 1 0 1.068 0v-.533a.532.532 0 0 0-.532-.532h-.001zm11.734-11.2H27.2l-.026-.001a.534.534 0 1 0 0 1.068l.027-.001H27.2h.534l.026.001a.534.534 0 1 0 0-1.068l-.027.001h.001zm-22.934 0h-.534a.533.533 0 0 0 0 1.066H4.8l.026.001a.534.534 0 1 0 0-1.068l-.027.001H4.8zm19.119-8.141-.378.378a.535.535 0 0 0 .756.754l.376-.378a.533.533 0 0 0-.754-.754zM7.703 23.478l-.376.378a.533.533 0 0 0 .754.754l.378-.378a.535.535 0 0 0-.756-.754zm16.594 0a.534.534 0 1 0-.756.756l.378.376a.531.531 0 0 0 .756 0 .53.53 0 0 0 0-.756l-.378-.376zM8.081 7.261a.534.534 0 1 0-.756.756l.378.376a.53.53 0 0 0 .756 0 .53.53 0 0 0 0-.756l-.378-.376z"/></symbol><symbol id="facebook-icon" viewBox="0 0 16 32"><path d="M14.512.006 10.896 0c-4.064 0-6.69 3.092-6.69 7.876v3.63H.568c-.314 0-.568.294-.568.654v5.26c0 .36.254.652.568.652h3.638v13.276c0 .36.254.652.568.652H9.52c.314 0 .568-.292.568-.652V18.072h4.252c.314 0 .568-.292.568-.652l.002-5.26c0-.174-.06-.34-.166-.462a.535.535 0 0 0-.402-.192h-4.254V8.428c0-1.48.308-2.23 1.988-2.23h2.436c.314 0 .568-.294.568-.654V.66c0-.36-.254-.652-.568-.654z"/></symbol><symbol id="instagram-icon" viewBox="0 0 32 32"><path d="M16.316 32h-.32l-.461.001c-2.329 0-4.64-.072-6.933-.212l.314.015c-2.066-.126-3.952-.84-5.454-2.064-1.45-1.182-2.44-2.78-2.942-4.75-.44-1.716-.46-3.4-.484-5.026C.02 18.794.004 17.41 0 16.004c.004-1.414.02-2.8.036-3.968.022-1.628.046-3.31.484-5.026.5-1.97 1.492-3.568 2.94-4.75C4.966 1.036 6.852.32 8.92.196c2.252-.138 4.57-.2 7.084-.196l.443-.001c2.335 0 4.653.071 6.952.212l-.316-.015c2.066.124 3.952.84 5.454 2.064 1.45 1.182 2.44 2.78 2.944 4.75.436 1.716.46 3.4.48 5.026.018 1.17.034 2.554.038 3.96v.006c-.004 1.408-.02 2.792-.036 3.96-.022 1.63-.046 3.312-.482 5.028-.504 1.97-1.494 3.568-2.944 4.75-1.502 1.224-3.388 1.94-5.454 2.064-1.968.125-4.268.196-6.585.196h-.193.01zm-.32-2.5.48.001c2.271 0 4.526-.069 6.763-.206l-.307.015c1.56-.096 2.916-.602 4.026-1.508 1.026-.836 1.734-1.99 2.1-3.43.364-1.428.386-2.96.406-4.444.016-1.16.032-2.534.036-3.928-.004-1.394-.02-2.768-.036-3.93-.02-1.48-.04-3.014-.406-4.44-.368-1.44-1.074-2.596-2.1-3.432-1.11-.906-2.464-1.412-4.026-1.508-1.93-.122-4.186-.191-6.457-.191l-.5.001h.026l-.485-.001c-2.269 0-4.522.069-6.756.206l.307-.015c-1.56.096-2.916.602-4.026 1.508-1.026.836-1.734 1.99-2.1 3.43-.364 1.428-.386 2.96-.406 4.442a364.21 364.21 0 0 0-.036 3.932c.004 1.39.02 2.766.036 3.926.02 1.484.04 3.016.406 4.444.366 1.44 1.074 2.594 2.1 3.43 1.11.906 2.464 1.412 4.026 1.508 2.2.134 4.468.196 6.928.19zm-.06-5.688A7.82 7.82 0 0 1 8.126 16a7.82 7.82 0 0 1 7.814-7.812A7.82 7.82 0 0 1 23.75 16a7.82 7.82 0 0 1-7.812 7.812zm0-13.124A5.32 5.32 0 0 0 10.626 16a5.32 5.32 0 0 0 5.314 5.312A5.32 5.32 0 0 0 21.25 16a5.32 5.32 0 0 0-5.312-5.312zm8.69-5-.061-.001a1.876 1.876 0 0 0 0 3.752l.064-.001h-.003a1.877 1.877 0 0 0 .003-3.75h-.003z"/></symbol><symbol id="location-icon" viewBox="0 0 23 32"><path d="M11.733 0c6.47 0 11.733 5.131 11.733 11.435 0 2.496-.811 4.866-2.34 6.854l-8.67 11.381c-.021.026-.055.036-.079.062a.886.886 0 0 1-1.364-.062l-.002-.002c-2.498-3.245-7.074-9.308-8.832-11.595l-.004-.004-.011-.013a11.071 11.071 0 0 1-2.165-6.605v-.017.001C-.001 5.131 5.262 0 11.732 0zm0 17.604c3.484 0 6.33-2.773 6.33-6.17 0-3.394-2.846-6.17-6.33-6.17s-6.33 2.773-6.33 6.17c0 3.394 2.846 6.17 6.33 6.17z"/></symbol><symbol id="logo" viewBox="0 0 61 32"><path d="M36.152 16.031c0 .256-.007.512 0 .768.076 2.603-.63 4.949-1.762 7.161a28.558 28.558 0 0 0-.985 2.051l-.085.219c-.27.637-.645 1.083-1.228 1.344-.326.145-.628.397-.901.657-1.257 1.196-2.682 2.052-4.207 2.655-1.013.4-2.056.753-3.156.737-.328-.004-.657.112-.985.113s-.657-.121-.983-.105c-1.419.07-2.733-.433-4.039-.961-1.425-.576-2.682-1.485-3.865-2.568-1.669-1.529-2.86-3.454-3.734-5.659-.471-1.188-.855-2.414-.963-3.733-.018-.219-.081-.435-.137-.648-.397-1.479-.168-2.929.077-4.403.188-1.127.381-2.24.747-3.31.967-2.83 2.502-5.147 4.628-6.968C16.347 1.865 18.331.933 20.488.533c2.475-.46 4.891-.129 7.236.945 1.17.537 2.274 1.218 3.238 2.119.899.84 1.71 1.824 2.476 2.829.695.911 1.187 1.996 1.628 3.103.687 1.729 1.136 3.519 1.09 5.442-.01.355-.003.708-.003 1.06zm-.951-3.504c-.069-.604-.111-1.305-.239-1.984-.365-1.955-1.348-3.481-2.658-4.728-.744-.709-1.555-1.324-2.354-1.951-.271-.212-.585-.407-.901-.472-.812-.172-1.634-.333-2.457-.382-1.429-.084-2.713-.509-3.792-1.654-.794-.842-1.659-.923-2.484-.182-.936.839-2.001 1.332-3.086 1.82-.795.358-1.561.808-2.326 1.253-.639.372-1.011.953-1.002 1.832.005.494-.191.905-.588 1.179a9.23 9.23 0 0 0-.958.765l.007-.006c-.846.767-1.505 1.63-1.647 2.971-.113 1.06-.391 2.108-1.022 2.981a2.147 2.147 0 0 0-.376 1.04l-.001.008c-.058.793-.034 1.595-.017 2.392.005.213.085.442.18.63.258.524.494.947.749 1.357l-.038-.066c.619.992 1.158 2.008 1.282 3.267.12 1.22.632 2.215 1.498 2.974 1.254 1.1 2.463 2.268 3.736 3.339.684.577 1.416 1.082 2.319 1.199s1.787.399 2.596.923c.17.105.356.171.547.194 1.141.142 2.198-.184 3.2-.799.243-.152.559-.33.881-.497l.083-.039c.783-.404 1.652-.669 2.334-1.232.76-.627 1.571-.905 2.442-1.081.376-.076.684-.254.929-.577.292-.383.563-.788.867-1.157.315-.382.543-.788.598-1.331.085-.833.394-1.569.787-2.276.665-1.194 1.043-2.514 1.24-3.918.052-.368.081-.68-.077-1.004-.458-.935-.271-1.997-.416-2.992-.073-.538.096-1.127.166-1.798l-.002.001zm-5.509-9.34c-.193-.246-.254-.357-.342-.426-.158-.126-.33-.229-.498-.338-1.437-.932-3.01-1.385-4.618-1.711-.323-.066-.662-.036-.992-.022-.086.004-.188.099-.242.186-.025.039.031.177.079.243a3.12 3.12 0 0 0 1.35 1.072 7.841 7.841 0 0 0 2.814.611h.013c.409.013.816.102 1.223.166.347.057.694.125 1.216.219zM17.485 30.053c-.964-.908-1.81-1.719-2.67-2.509a97.596 97.596 0 0 0-2.168-1.915c-.082-.071-.211-.069-.39-.122.877 1.696 3.806 4.273 5.227 4.546zM10.988 8.869c.582-.512 1.12-1.05 1.711-1.496.828-.622 1.145-1.394.949-2.721-.588.554-1.007 1.221-1.46 1.826-.479.639-.834 1.4-1.233 2.115-.031.058.019.172.034.276zm19.614 19.355c-.542-.043-1.089.067-1.429.405-.646.64-1.414.961-2.196 1.281-.41.168-.797.414-1.184.649-.054.032-.064.205-.052.307.004.034.148.09.208.067.702-.276 1.427-.497 2.092-.866.815-.45 1.58-1.021 2.36-1.55.082-.053.125-.177.201-.294zM9.875 19.352c-.156.53-.125.823-.027 1.135.272.866.437 1.78.927 2.537.182.281.219.908.554.773.295-.118-.05-.615-.071-.95-.077-1.28-.662-2.311-1.384-3.495zm5.263-15.937.073.126c.405-.174.815-.337 1.216-.522a92.59 92.59 0 0 0 3.636-1.687l-1.028.456c.175-.085.335-.221.484-.359.042-.039.034-.172.021-.254-.007-.037-.089-.076-.137-.079a.73.73 0 0 0-.239.046c-1.178.386-2.289.956-3.353 1.649-.249.162-.45.414-.673.625zm20.69 13.745c.071-.095.127-.135.131-.18.114-1.395-.014-2.776-.18-4.155-.008-.069-.091-.168-.148-.177-.062-.01-.16.05-.198.115a.795.795 0 0 0-.112.342v.003a15.307 15.307 0 0 0 .207 3.486l-.013-.091c.037.226.2.424.314.655zM9.591 13.312c.46-.202.528-.568.578-.898.12-.805.42-1.58.321-2.431-.481 1.016-.907 2.045-.899 3.328zm11.127 17.673c-1.03-.525-1.31-.58-2.227-.433.389.17.739.44 1.091.443.367.007.765.524 1.137-.01z"/><path d="M22.843 20.542c-.705-.014-1.189-.354-1.548-1.01-.334-.612-.889-.93-1.398-1.307-.641-.475-1.163-1.012-1.311-1.975a2.997 2.997 0 0 1 .247-1.736c.193-.431.538-.832.9-1.088.393-.278.718-.54.9-1.053.205-.591.723-.627 1.181-.733.431-.1.87-.164 1.295-.289.581-.171 1.109-.118 1.534.403.328.405.712.695 1.139.941.445.254.591.553.452 1.086-.095.362-.003.608.114.897.128.315.259.635.348.968.293 1.107-.044 2.039-.946 2.532-.559.305-.987.712-1.126 1.428-.056.289-.212.453-.433.527-.446.15-.898.274-1.349.409zm2.959-4.641c.014-1.95-1.269-3.51-2.938-3.512-1.498 0-3.004 1.167-3.063 3.404-.047 1.79 1.248 3.458 2.936 3.464 2.055.012 3.025-1.632 3.065-3.357zm-6.018 1.864c0-.25.021-.378-.003-.494-.222-1.059-.366-2.109.137-3.129.036-.073-.047-.224-.076-.339-.098.037-.217.044-.292.114-.83.784-1.2 2.667.234 3.847zm3.081-5.865c.347.146.546.25.753.315.765.233 1.417.652 1.871 1.424.089.152.205.378.376.204.091-.093.121-.375.068-.516-.071-.188-.231-.422-.386-.459-.42-.101-.65-.452-.924-.757-.46-.509-.975-.669-1.758-.211zm-.047 7.676-.01-.073c-.22 0-.443-.022-.659.009-.112.016-.213.125-.319.192.096.098.18.252.291.284.592.172 1.19.209 1.774-.054.1-.045.211-.104.274-.197.056-.079.073-.219.062-.325-.004-.039-.143-.099-.211-.086-.401.072-.801.164-1.2.249l-.002.001zm3.03-2c.41-.088.594-.355.618-.764a8.157 8.157 0 0 0-.013-1.037c-.007-.091-.117-.172-.179-.258-.091.1-.277.234-.26.293.167.598-.182 1.133-.166 1.764v.001zm3.755 2.7c-.024.014-.119.106-.222.118-.094.012-.231-.024-.289-.099a16.082 16.082 0 0 1-.797-1.112l-.039-.064c-.068-.107-.096-.394-.057-.419.128-.082.379-.167.435-.096.33.419.621.881.919 1.332.029.046.02.123.05.34zM15.628 23.56c.153.014.454.025.748.083.073.014.171.179.171.278s-.085.269-.158.29c-.571.163-1.14.204-1.645-.236a.31.31 0 0 1-.064-.108l-.001-.002a.315.315 0 0 1-.017-.104l.001-.029v.001c.011-.066.099-.157.159-.162.219-.021.439-.01.806-.01zM33.53 9.716l.216.136c-.061.126-.099.33-.188.366a7.434 7.434 0 0 1-1.208.403l-.055.011c-.123.028-.303-.112-.416-.227-.131-.133-.053-.423.113-.452.487-.086.977-.152 1.538-.238zM18.988 26.379c.229.123.42.157.514.288.256.365.49.75.7 1.152.103.192.009.399-.164.454-.095.03-.266-.059-.336-.158a11.977 11.977 0 0 1-.741-1.152l-.033-.062c-.055-.1.03-.302.061-.522zm8.966-15.235c.014-.112 0-.24.046-.289.062-.064.194-.118.257-.083.087.048.143.178.202.281.166.285.329.573.487.866.071.131.165.271.171.412a.59.59 0 0 1-.148.39c-.048.05-.244.018-.292-.052-.316-.463-.695-.896-.723-1.526zm.984-4.914c-.068.472-.096.82-.175 1.153a.968.968 0 0 1-.273.456h-.001c-.091.084-.249.072-.376.103-.01-.138-.047-.281-.026-.411.067-.402.156-.8.236-1.199.006-.031.004-.064.012-.095.063-.241.199-.424.417-.325.11.05.161.271.186.317zM23.04 9.302c.192.028.441.042.679.109.081.023.2.191.187.263-.025.13-.118.3-.217.338a.711.711 0 0 1-.486.001l.005.002c-.274-.1-.528-.134-.802-.002-.179.086-.347-.005-.395-.21-.064-.275.116-.409.318-.448.216-.041.438-.035.712-.053zm4.266 13.572c-.078.391-.137.734-.221 1.069-.016.066-.137.154-.187.139-.091-.025-.219-.108-.238-.194a1.44 1.44 0 0 1-.013-.576l-.001.009c.064-.343.127-.669.007-1.02-.058-.168-.041-.436.18-.436.12 0 .291.17.345.311.088.225.093.49.127.697zm-3.366-.1c-.044.092-.066.2-.125.247-.36.285-.721.573-1.1.822-.097.064-.267.025-.391-.018-.181-.062-.219-.335-.068-.446.414-.306.832-.61 1.259-.891.068-.046.205.003.293.054.06.035.086.146.131.232zM19.351 4.409c.059.04.169.074.184.136.143.606.281 1.215.394 1.829.032.17-.165.265-.296.163-.414-.32-.671-1.507-.43-2.004.025-.049.086-.074.148-.125zm5.111 1.724c-.125-.096-.259-.145-.277-.227-.019-.089.045-.243.115-.315.303-.312.621-.606.951-.881.111-.09.342-.154.428-.083.202.163.096.394-.045.562-.189.227-.376.466-.594.65-.167.138-.381.198-.578.294zm-7.864 3.205-.302.329c-.086-.108-.214-.197-.251-.325-.1-.32-.232-.833-.349-1.351l-.033-.176c-.016-.07.034-.214.086-.239.084-.039.222-.055.285 0 .125.107.269.249.31.41.108.417.165.854.254 1.351zm-3.311 8.42c-.278.586-.488 1.185-1.005 1.504-.087.054-.279-.015-.372-.1-.158-.145 0-.264.077-.388.242-.384.466-.785.724-1.155.066-.095.235-.142.349-.129.078.008.142.161.226.267zm3.134.05c.145.096.25.125.269.188.032.104.049.268 0 .339-.079.115-.215.181-.332.258-.303.2-.603.412-.918.583a.37.37 0 0 1-.355-.034c-.176-.145-.114-.376.027-.478.433-.312.889-.585 1.31-.857zm15.683-2.651c-.111.289-.268.726-.454 1.145-.029.065-.209.1-.285.062-.071-.037-.148-.201-.134-.29.075-.466.157-.935.283-1.385.039-.137.211-.262.344-.308.049-.017.179.197.239.328.035.074.006.187.006.448zM13.2 11.678c.491.507.433 1.196.487 1.831.01.118-.117.287-.219.373-.053.045-.27-.027-.275-.069a41.603 41.603 0 0 1-.184-1.934c-.004-.055.112-.122.192-.201zm11.471 15.701c.082.025.163.056.243.091.295.157.591.31.879.484.136.082.274.184.372.315.113.152-.016.443-.175.403-.535-.133-1.058-.319-1.458-.78-.059-.068-.058-.238-.039-.352.011-.064.114-.108.177-.162zM18.16 11.864c.028.102.125.26.091.359-.18.525-.388 1.039-.6 1.549-.026.062-.137.118-.202.108-.058-.008-.137-.101-.152-.172-.112-.568.242-1.585.636-1.841.04-.027.106-.004.226-.004zm15.298 8.625c-.062-.045-.19-.1-.256-.206-.027-.042.059-.234.134-.296.3-.256.631-.511.974-.748l.041-.027c.094-.063.291-.068.36.003.064.066.074.315.016.406-.293.471-.664.83-1.268.866zm-2.032 4.054c-.254-.03-.364-.034-.47-.061-.045-.012-.112-.072-.112-.112l-.001-.027c0-.083.022-.162.06-.23l-.001.002a.42.42 0 0 1 .205-.148c.391-.135.783-.271 1.18-.381.086-.024.268.042.279.098a.9.9 0 0 1-.051.433c-.024.072-.121.131-.195.158-.34.107-.682.204-.894.266zm-11.784-3.254c-.028.137-.074.441-.162.729-.022.071-.193.14-.271.114s-.171-.175-.168-.269c.007-.573.035-1.127.084-1.675l-.006.083c.01-.116.137-.217.21-.325.088.106.229.2.252.323.049.274.039.562.062 1.019zM37.981 4.672c0-1.125.236-1.978.709-2.559.478-.588 1.091-.881 1.837-.881s1.34.253 1.78.76c.446.507.669 1.317.669 2.429s-.236 1.954-.709 2.522c-.473.569-1.104.853-1.893.853-.682 0-1.241-.226-1.676-.677-.226-.235-.403-.559-.532-.973-.123-.42-.185-.912-.185-1.474zm2.522-3.348c-.542 0-.988.278-1.337.835-.344.556-.515 1.373-.515 2.448s.164 1.861.492 2.355c.327.494.763.742 1.305.742.548 0 .994-.278 1.337-.835.349-.563.524-1.375.524-2.439 0-1.069-.166-1.854-.499-2.355-.328-.5-.763-.751-1.305-.751zm3.867 6.435h-.669V1.268h.669v2.986h2.619V1.269h.669V7.76h-.669V4.348H44.37V7.76zm6.725 0h-.105l.701-6.491h.266l1.692 5.999 1.684-5.999h.266l.701 6.491h-.669l-.556-5.192-1.458 5.192h-.508l-1.474-5.128-.54 5.128zm9.668-6.49a.669.669 0 0 1 .153.454c0 .155-.03.312-.089.473l-1.442 3.366V7.76h-.669V5.767L57.104 1.27h.685l1.539 4.182 1.402-3.254c.059-.154.089-.315.089-.482s-.04-.297-.121-.389l.064-.056zM1.136 9.465c.364-.021.79-.033 1.22-.033h.001c.407 0 .833.049 1.278.147.455.098.899.283 1.335.555.449.266.823.611 1.114 1.018l.007.011c.312.414.563.964.752 1.651s.284 1.519.284 2.5-.142 1.863-.426 2.647c-.274.773-.653 1.367-1.136 1.781-.937.806-2.068 1.209-3.394 1.209-.464 0-.951-.022-1.462-.066h-.71V9.464h1.136zm.042 11.29c.199.022.45.033.753.033s.53-.005.682-.017a3.22 3.22 0 0 0 1.377-.482l-.014.008a3.47 3.47 0 0 0 .71-.621c.256-.287.475-.615.643-.972l.011-.025c.407-.893.61-2.059.61-3.497 0-1.024-.109-1.906-.327-2.647-.218-.752-.468-1.307-.753-1.667a3.025 3.025 0 0 0-.991-.842l-.016-.008c-.397-.218-.715-.343-.952-.376a5.962 5.962 0 0 0-.773-.049h-.054.003c-.312 0-.615.017-.908.049v11.111zm37.033.131h-.185V9.448h.483l5.907 10.572V9.448h.185v11.438h-1.036l-5.353-9.477v9.477zM53.343 9.448h.185v6.536c0 1.71-.293 2.968-.88 3.774-.587.795-1.354 1.192-2.3 1.192-.596 0-1.103-.06-1.519-.18a3.156 3.156 0 0 1-1.179-.702c-.757-.675-1.136-2.037-1.136-4.085V9.447h1.179v6.52c0 1.982.26 3.306.781 3.97.265.327.539.55.824.67.293.12.643.18 1.051.18.909 0 1.633-.382 2.172-1.144.549-.773.824-1.999.824-3.676v-6.52zm5.028 11.438h-1.179V9.612h-2.456v-.163h6.105v.163H58.37v11.274z"/></symbol><symbol id="people-icon" viewBox="0 0 31 32"><path fill="#674d40" style="fill:var(--color1,#674d40)" d="M10.607 0C7.314 0 4.633 3.077 4.633 6.856s2.682 6.856 5.975 6.856 5.975-3.077 5.975-6.856S13.9 0 10.608 0zm0 12.562c-2.749 0-4.979-2.566-4.979-5.714 0-3.146 2.236-5.713 4.979-5.713 2.749 0 4.979 2.566 4.979 5.713 0 3.149-2.236 5.714-4.979 5.714zm12.238-9.717c-2.474 0-4.484 2.307-4.484 5.146s2.01 5.146 4.484 5.146c2.476 0 4.485-2.307 4.485-5.146s-2.01-5.146-4.485-5.146zm0 9.155c-1.924 0-3.488-1.795-3.488-4.003s1.564-4.003 3.488-4.003c1.925 0 3.489 1.795 3.489 4.003S24.77 12 22.845 12z"/><path fill="#674d40" style="fill:var(--color1,#674d40)" d="M30.868 20.678c-.452-3.126-2.145-5.761-5.029-7.142 0 0-1.276 1.107-2.994 1.073-1.875-.042-2.994-1.073-2.994-1.073s-1.393.596-2.516 1.837c-1.039-1.059-2.793-1.92-2.793-1.92s-1.606 1.402-3.941 1.38c-2.45-.02-3.928-1.381-3.928-1.381S1.375 15.541.258 22.628c0 0-1.198 3.757 1.576 9.372h17.554s1.247-2.488 1.467-4.003h8.731c2.145-3.73 1.284-7.319 1.284-7.319zM18.77 30.857H2.45c-2.13-4.646-1.208-8.04-1.208-8.04.52-3.555 2.511-6.554 5.359-8.077 1.123.773 2.513 1.235 4.011 1.235s2.888-.462 4.035-1.251l-.024.016c2.848 1.523 4.838 4.522 5.359 8.077-.006 0 .879 4.178-1.211 8.04zm10.235-4.003h-7.949c.305-2.019-.099-4.227-.099-4.227-.36-2.496-1.386-4.746-2.89-6.484a7.21 7.21 0 0 1 1.669-1.3l.036-.019c.863.58 1.926.925 3.07.925s2.207-.345 3.09-.938l-.02.013c2.108 1.157 3.588 3.393 3.972 6.043 0 0 .727 2.833-.879 5.987z"/></symbol><symbol id="phone-icon" viewBox="0 0 32 32"><path d="M29.43 20.47h-.033c-2.027 0-3.978-.324-5.805-.924l.131.037c-.894-.295-1.991-.025-2.535.519l-3.599 2.649c-4.172-2.171-6.742-4.677-8.938-8.711l2.634-3.414a2.48 2.48 0 0 0 .638-2.555c-.577-1.653-.911-3.559-.911-5.543v-.026.001C11.01 1.122 9.855 0 8.442 0H2.566C1.151 0-.001 1.122-.001 2.503c0 15.815 13.201 28.682 29.43 28.682 1.415 0 2.567-1.122 2.567-2.503v-5.711c0-1.378-1.152-2.501-2.567-2.501z"/></symbol><symbol id="twitter-icon" viewBox="0 0 34 32"><path d="M34.133 3.669a13.11 13.11 0 0 1-3.96 1.229l-.072.009c1.451-.969 2.558-2.492 3.078-4.324a12.957 12.957 0 0 1-4.349 1.875l-.088.017C27.458.948 25.627 0 23.631 0c-3.874 0-6.993 3.516-6.993 7.825 0 .619.047 1.216.162 1.783C10.982 9.29 5.835 6.173 2.377 1.425a8.477 8.477 0 0 0-.958 3.944v.012-.001c0 2.709 1.248 5.109 3.108 6.5a6.332 6.332 0 0 1-3.188-.98l.026.015V11c0 3.804 2.426 6.961 5.606 7.689-.57.173-1.19.256-1.835.256-.448 0-.9-.028-1.325-.132.907 3.098 3.479 5.376 6.539 5.449-2.381 2.082-5.404 3.337-8.676 3.337-.574 0-1.124-.03-1.675-.107 3.1 2.234 6.773 3.509 10.735 3.509 12.877 0 19.917-11.925 19.917-22.259 0-.346-.011-.681-.026-1.011a15.072 15.072 0 0 0 3.469-3.993l.038-.068z"/></symbol><symbol id="icon-menu" viewBox="0 0 60 32"><path d="M2 0h56a2 2 0 1 1 0 4H2a2 2 0 1 1 0-4zM2 14h56a2 2 0 1 1 0 4H2a2 2 0 1 1 0-4zM2 28h56a2 2 0 1 1 0 4H2a2 2 0 1 1 0-4z"/></symbol><symbol id="icon-close" viewBox="0 0 32 32"><path d="M30.355 32a1.646 1.646 0 0 0 1.163-2.811L2.811.482A1.646 1.646 0 1 0 .483 2.811L29.19 31.517a1.65 1.65 0 0 0 1.165.483z"/><path d="M1.645 32c.422 0 .843-.16 1.163-.483L31.517 2.811A1.647 1.647 0 0 0 29.188.482L.481 29.189A1.646 1.646 0 0 0 1.644 32z"/></symbol><symbol id="icon-four-star" viewBox="0 0 173 32"><path fill="#ab816c" style="fill:var(--color1,#ab816c)" d="M14.249 4.68c.383-1.179 2.051-1.179 2.435 0l1.908 5.872a1.28 1.28 0 0 0 1.217.884h6.174c1.24 0 1.756 1.587.752 2.316l-4.995 3.629a1.28 1.28 0 0 0-.465 1.431l1.908 5.872c.383 1.179-.967 2.16-1.97 1.431l-4.995-3.629a1.28 1.28 0 0 0-1.505 0l-4.995 3.629c-1.003.729-2.353-.252-1.97-1.431l1.908-5.872a1.28 1.28 0 0 0-.465-1.431l-4.995-3.629c-1.003-.729-.488-2.316.752-2.316h6.174c.555 0 1.046-.357 1.217-.884l1.908-5.872z"/><path fill="none" stroke="#ab816c" style="stroke:var(--color1,#ab816c)" stroke-width="1.28" d="M156.724 4.878c.192-.59 1.027-.59 1.217 0l1.908 5.872a1.919 1.919 0 0 0 1.825 1.327h6.175c.62 0 .878.793.376 1.158l-4.996 3.629a1.924 1.924 0 0 0-.698 2.147l1.908 5.872c.192.59-.484 1.08-.984.716l-4.996-3.629a1.92 1.92 0 0 0-2.257 0l-4.995 3.629c-.502.364-1.176-.126-.986-.716l1.908-5.872a1.92 1.92 0 0 0-.698-2.147l-4.995-3.629c-.502-.364-.244-1.158.376-1.158h6.173c.832 0 1.569-.536 1.827-1.327l1.907-5.872z"/><path fill="#ab816c" style="fill:var(--color1,#ab816c)" d="M120.649 4.68c.383-1.179 2.051-1.179 2.435 0l1.908 5.872a1.28 1.28 0 0 0 1.217.884h6.173c1.24 0 1.756 1.587.753 2.316l-4.995 3.629a1.28 1.28 0 0 0-.465 1.431l1.908 5.872c.384 1.179-.966 2.16-1.969 1.431l-4.995-3.629a1.28 1.28 0 0 0-1.505 0l-4.995 3.629c-1.003.729-2.353-.252-1.97-1.431l1.908-5.872a1.28 1.28 0 0 0-.465-1.431l-4.995-3.629c-1.003-.729-.488-2.316.752-2.316h6.174c.555 0 1.046-.357 1.217-.884l1.908-5.872zM85.183 4.68c.383-1.179 2.052-1.179 2.435 0l1.908 5.872a1.28 1.28 0 0 0 1.217.884h6.174c1.24 0 1.756 1.587.752 2.316l-4.995 3.629a1.28 1.28 0 0 0-.465 1.431l1.908 5.872c.383 1.179-.967 2.16-1.97 1.431l-4.995-3.629a1.28 1.28 0 0 0-1.505 0l-4.995 3.629c-1.003.729-2.353-.252-1.97-1.431l1.908-5.872a1.28 1.28 0 0 0-.465-1.431l-4.995-3.629c-1.003-.729-.488-2.316.752-2.316h6.174c.555 0 1.046-.357 1.217-.884l1.908-5.872zM49.716 4.68c.383-1.179 2.052-1.179 2.435 0l1.908 5.872a1.28 1.28 0 0 0 1.217.884h6.174c1.24 0 1.756 1.587.752 2.316l-4.995 3.629a1.28 1.28 0 0 0-.465 1.431l1.908 5.872c.383 1.179-.967 2.16-1.97 1.431l-4.995-3.629a1.28 1.28 0 0 0-1.505 0l-4.995 3.629c-1.003.729-2.353-.252-1.97-1.431l1.908-5.872a1.28 1.28 0 0 0-.465-1.431l-4.995-3.629c-1.003-.729-.488-2.316.752-2.316h6.174a1.28 1.28 0 0 0 1.217-.884l1.908-5.872z"/></symbol><symbol id="icon-five-star" viewBox="0 0 181 32"><path fill="#ab816c" style="fill:var(--color1,#ab816c)" d="M14.732 3.903c.399-1.228 2.137-1.228 2.536 0l2.025 6.232c.178.549.69.921 1.268.921h6.552c1.292 0 1.829 1.653.784 2.412l-5.301 3.851a1.333 1.333 0 0 0-.484 1.491l2.025 6.232c.399 1.228-1.007 2.25-2.052 1.491l-5.301-3.851a1.334 1.334 0 0 0-1.567 0l-5.301 3.851c-1.045.759-2.451-.262-2.052-1.491l2.025-6.232a1.335 1.335 0 0 0-.484-1.491l-5.301-3.851c-1.045-.759-.508-2.412.784-2.412h6.552c.578 0 1.09-.372 1.268-.921l2.025-6.232zM164.065 3.903c.399-1.228 2.137-1.228 2.536 0l2.025 6.232c.179.549.689.921 1.268.921h6.552c1.292 0 1.828 1.653.784 2.412l-5.301 3.851a1.333 1.333 0 0 0-.484 1.491l2.024 6.232c.4 1.228-1.007 2.25-2.051 1.491l-5.301-3.851a1.336 1.336 0 0 0-1.568 0l-5.301 3.851c-1.044.759-2.451-.262-2.051-1.491l2.024-6.232a1.334 1.334 0 0 0-.484-1.491l-5.301-3.851c-1.044-.759-.508-2.412.784-2.412h6.552c.579 0 1.089-.372 1.268-.921l2.025-6.232zM126.732 3.903c.399-1.228 2.137-1.228 2.536 0l2.025 6.232c.178.549.69.921 1.268.921h6.552c1.292 0 1.828 1.653.784 2.412l-5.301 3.851a1.333 1.333 0 0 0-.484 1.491l2.024 6.232c.4 1.228-1.007 2.25-2.051 1.491l-5.302-3.851a1.334 1.334 0 0 0-1.567 0l-5.301 3.851c-1.045.759-2.451-.262-2.052-1.491l2.025-6.232a1.334 1.334 0 0 0-.484-1.491l-5.301-3.851c-1.045-.759-.508-2.412.784-2.412h6.552c.578 0 1.09-.372 1.268-.921l2.025-6.232zM89.399 3.903c.399-1.228 2.137-1.228 2.536 0l2.025 6.232c.178.549.69.921 1.268.921h6.552c1.292 0 1.829 1.653.784 2.412l-5.301 3.851a1.333 1.333 0 0 0-.484 1.491l2.025 6.232c.399 1.228-1.007 2.25-2.052 1.491l-5.301-3.851a1.334 1.334 0 0 0-1.567 0l-5.301 3.851c-1.045.759-2.451-.262-2.052-1.491l2.025-6.232a1.334 1.334 0 0 0-.484-1.491l-5.301-3.851c-1.045-.759-.508-2.412.784-2.412h6.552c.578 0 1.09-.372 1.268-.921L89.4 3.903zM52.065 3.903c.399-1.228 2.137-1.228 2.536 0l2.025 6.232c.178.549.69.921 1.268.921h6.552c1.292 0 1.829 1.653.784 2.412l-5.301 3.851a1.333 1.333 0 0 0-.484 1.491l2.025 6.232c.399 1.228-1.007 2.25-2.052 1.491l-5.301-3.851a1.334 1.334 0 0 0-1.567 0l-5.301 3.851c-1.045.759-2.451-.262-2.052-1.491l2.025-6.232a1.334 1.334 0 0 0-.484-1.491l-5.301-3.851c-1.045-.759-.508-2.412.784-2.412h6.552c.578 0 1.09-.372 1.268-.921l2.025-6.232z"/></symbol></defs></svg>